<?xml version="1.0" encoding="UTF-8"?>
<svg width="26px" height="26px" viewBox="0 0 26 26" version="1.1" xmlns="http://www.w3.org/2000/svg" xmlns:xlink="http://www.w3.org/1999/xlink">
    <!-- Generator: sketchtool 53.2 (72643) - https://sketchapp.com -->
    <title>1EB760F8-1B4E-48A7-8130-3E9E8470CCAF</title>
    <desc>Created with sketchtool.</desc>
    <g id="Page-1" stroke="none" stroke-width="1" fill="none" fill-rule="evenodd">
        <g id="Home-v3.4" transform="translate(-644.000000, -2236.000000)" fill="#315EFD" stroke="#3561FF">
            <g id="play-arrow" transform="translate(645.000000, 2237.000000)">
                <g id="Shape">
                    <path d="M17.4519246,11.1973937 L10.540669,6.64725888 C10.3706338,6.53537908 10.1837809,6.47619048 10.000203,6.47619048 C9.51151763,6.47619048 9.14285714,6.87635882 9.14285714,7.4070091 L9.14285714,16.5929909 C9.14285714,17.1236412 9.51142912,17.5238095 10.0001145,17.5238095 C10.1837809,17.5238095 10.3707223,17.4646209 10.5405805,17.3526521 L17.4519246,12.8018943 C17.7396834,12.6124018 17.9048504,12.31993 17.9047619,11.9995995 C17.9048504,11.679269 17.7397719,11.3869752 17.4519246,11.1973937 Z M10.4706545,15.8029788 L10.4706545,8.19693215 L16.2467191,11.9996885 L10.4706545,15.8029788 Z" stroke-width="0.3" fill-rule="nonzero"></path>
                    <path d="M12,0 C5.3831894,0 0,5.38311926 0,11.9999548 C0,18.6167903 5.3831894,24 12,24 C18.6168106,24 24,18.6167903 24,11.9999548 C24,5.38311926 18.616901,0 12,0 Z M12,22.6435722 C6.13112086,22.6435722 1.35642266,17.868856 1.35642266,11.9999548 C1.35642266,6.13105353 6.13112086,1.35642777 12,1.35642777 C17.8688791,1.35642777 22.6435773,6.13105353 22.6435773,11.9999548 C22.6435773,17.868856 17.8689696,22.6435722 12,22.6435722 Z" stroke-width="0.5" fill-rule="nonzero"></path>
                </g>
            </g>
        </g>
    </g>
</svg>